<svg width="1756" height="2449" viewBox="0 0 1756 2449" fill="none" xmlns="http://www.w3.org/2000/svg">
<g clip-path="url(#clip0_57_2)">
<rect width="1756" height="2449" fill="url(#paint0_linear_57_2)"/>
<g filter="url(#filter0_f_57_2)">
<path d="M162.5 171L294.402 421.481H721.246L375.922 576.287L507.824 826.769L162.5 671.963L-182.824 826.769L-50.9219 576.287L-396.246 421.481H30.598L162.5 171Z" fill="#D9D9D9"/>
</g>
<g filter="url(#filter1_f_57_2)">
<ellipse cx="102" cy="49.5" rx="274" ry="228.5" fill="black"/>
</g>
<g filter="url(#filter2_f_57_2)">
<ellipse cx="1169" cy="245.5" rx="88" ry="356.5" fill="#D9D9D9"/>
</g>
<g filter="url(#filter3_f_57_2)">
<rect x="472" y="49" width="514" height="416" fill="white"/>
</g>
<g filter="url(#filter4_f_57_2)">
<path d="M1099 537L1287.79 977.25H910.206L1099 537Z" fill="#D9D9D9"/>
</g>
<g filter="url(#filter5_f_57_2)">
<path d="M855.5 1441L969.441 1472.44L1338.16 1472.44L1039.86 1491.87L1153.8 1523.31L855.5 1503.88L557.199 1523.31L671.14 1491.87L372.839 1472.44L741.559 1472.44L855.5 1441Z" fill="#D9D9D9"/>
</g>
<g filter="url(#filter6_f_57_2)">
<ellipse cx="583.5" cy="1165" rx="272.5" ry="221" fill="#B4ACAC" fill-opacity="0.59"/>
</g>
<g filter="url(#filter7_f_57_2)">
<rect x="1154" y="827" width="489" height="495" fill="white"/>
</g>
<g filter="url(#filter8_f_57_2)">
<rect x="125" y="1886" width="525" height="154" fill="#D9D9D9"/>
</g>
<g filter="url(#filter9_f_57_2)">
<rect x="-57" y="1267" width="279" height="425" fill="black"/>
</g>
<g filter="url(#filter10_f_57_2)">
<ellipse cx="1001" cy="2091" rx="199" ry="265" fill="#868686"/>
</g>
<g filter="url(#filter11_f_57_2)">
<ellipse cx="-3" cy="1017.5" rx="237" ry="78.5" fill="#D9D9D9"/>
</g>
<g filter="url(#filter12_f_57_2)">
<ellipse cx="1328.5" cy="1740" rx="159.5" ry="177" fill="#D9D9D9"/>
</g>
<g filter="url(#filter13_f_57_2)">
<path d="M1549 -179L1601.09 -1.76286L1769.65 -1.76285L1633.28 107.776L1685.37 285.013L1549 175.474L1412.63 285.013L1464.72 107.776L1328.35 -1.76285L1496.91 -1.76286L1549 -179Z" fill="black"/>
</g>
<g filter="url(#filter14_f_57_2)">
<path d="M587.5 1575L691.338 1759.49H1027.36L755.513 1873.52L859.351 2058.01L587.5 1943.98L315.649 2058.01L419.487 1873.52L147.636 1759.49H483.662L587.5 1575Z" fill="white"/>
</g>
<g filter="url(#filter15_f_57_2)">
<path d="M695.5 602L732.657 813.786H852.9L755.621 944.677L792.778 1156.46L695.5 1025.57L598.222 1156.46L635.379 944.677L538.1 813.786H658.343L695.5 602Z" fill="#EADDDD"/>
</g>
<g filter="url(#filter16_f_57_2)">
<path d="M905.5 399L1120.71 722.25H690.293L905.5 399Z" fill="white"/>
</g>
<g filter="url(#filter17_f_57_2)">
<path d="M411.5 602L964.457 1258.25H-141.457L411.5 602Z" fill="#CDCDCD"/>
</g>
<g filter="url(#filter18_f_57_2)">
<rect x="1469" y="1666" width="362" height="539" fill="white"/>
</g>
<g filter="url(#filter19_f_57_2)">
<path d="M131 1746L219.458 1957.79H505.716L274.129 2088.68L362.587 2300.46L131 2169.57L-100.587 2300.46L-12.1289 2088.68L-243.716 1957.79H42.5415L131 1746Z" fill="#D9D9D9"/>
</g>
<g filter="url(#filter20_f_57_2)">
<path d="M1127 1144L1510.65 1677.25H743.351L1127 1144Z" fill="white"/>
</g>
<g filter="url(#filter21_f_57_2)">
<ellipse cx="1537" cy="602.5" rx="265" ry="125.5" fill="#868686"/>
</g>
</g>
<defs>
<filter id="filter0_f_57_2" x="-546.246" y="21" width="1417.49" height="955.769" filterUnits="userSpaceOnUse" color-interpolation-filters="sRGB">
<feFlood flood-opacity="0" result="BackgroundImageFix"/>
<feBlend mode="normal" in="SourceGraphic" in2="BackgroundImageFix" result="shape"/>
<feGaussianBlur stdDeviation="75" result="effect1_foregroundBlur_57_2"/>
</filter>
<filter id="filter1_f_57_2" x="-322" y="-329" width="848" height="757" filterUnits="userSpaceOnUse" color-interpolation-filters="sRGB">
<feFlood flood-opacity="0" result="BackgroundImageFix"/>
<feBlend mode="normal" in="SourceGraphic" in2="BackgroundImageFix" result="shape"/>
<feGaussianBlur stdDeviation="75" result="effect1_foregroundBlur_57_2"/>
</filter>
<filter id="filter2_f_57_2" x="931" y="-261" width="476" height="1013" filterUnits="userSpaceOnUse" color-interpolation-filters="sRGB">
<feFlood flood-opacity="0" result="BackgroundImageFix"/>
<feBlend mode="normal" in="SourceGraphic" in2="BackgroundImageFix" result="shape"/>
<feGaussianBlur stdDeviation="75" result="effect1_foregroundBlur_57_2"/>
</filter>
<filter id="filter3_f_57_2" x="322" y="-101" width="814" height="716" filterUnits="userSpaceOnUse" color-interpolation-filters="sRGB">
<feFlood flood-opacity="0" result="BackgroundImageFix"/>
<feBlend mode="normal" in="SourceGraphic" in2="BackgroundImageFix" result="shape"/>
<feGaussianBlur stdDeviation="75" result="effect1_foregroundBlur_57_2"/>
</filter>
<filter id="filter4_f_57_2" x="760.206" y="387" width="677.587" height="740.25" filterUnits="userSpaceOnUse" color-interpolation-filters="sRGB">
<feFlood flood-opacity="0" result="BackgroundImageFix"/>
<feBlend mode="normal" in="SourceGraphic" in2="BackgroundImageFix" result="shape"/>
<feGaussianBlur stdDeviation="75" result="effect1_foregroundBlur_57_2"/>
</filter>
<filter id="filter5_f_57_2" x="222.839" y="1291" width="1265.32" height="382.31" filterUnits="userSpaceOnUse" color-interpolation-filters="sRGB">
<feFlood flood-opacity="0" result="BackgroundImageFix"/>
<feBlend mode="normal" in="SourceGraphic" in2="BackgroundImageFix" result="shape"/>
<feGaussianBlur stdDeviation="75" result="effect1_foregroundBlur_57_2"/>
</filter>
<filter id="filter6_f_57_2" x="161" y="794" width="845" height="742" filterUnits="userSpaceOnUse" color-interpolation-filters="sRGB">
<feFlood flood-opacity="0" result="BackgroundImageFix"/>
<feBlend mode="normal" in="SourceGraphic" in2="BackgroundImageFix" result="shape"/>
<feGaussianBlur stdDeviation="75" result="effect1_foregroundBlur_57_2"/>
</filter>
<filter id="filter7_f_57_2" x="1004" y="677" width="789" height="795" filterUnits="userSpaceOnUse" color-interpolation-filters="sRGB">
<feFlood flood-opacity="0" result="BackgroundImageFix"/>
<feBlend mode="normal" in="SourceGraphic" in2="BackgroundImageFix" result="shape"/>
<feGaussianBlur stdDeviation="75" result="effect1_foregroundBlur_57_2"/>
</filter>
<filter id="filter8_f_57_2" x="-25" y="1736" width="825" height="454" filterUnits="userSpaceOnUse" color-interpolation-filters="sRGB">
<feFlood flood-opacity="0" result="BackgroundImageFix"/>
<feBlend mode="normal" in="SourceGraphic" in2="BackgroundImageFix" result="shape"/>
<feGaussianBlur stdDeviation="75" result="effect1_foregroundBlur_57_2"/>
</filter>
<filter id="filter9_f_57_2" x="-207" y="1117" width="579" height="725" filterUnits="userSpaceOnUse" color-interpolation-filters="sRGB">
<feFlood flood-opacity="0" result="BackgroundImageFix"/>
<feBlend mode="normal" in="SourceGraphic" in2="BackgroundImageFix" result="shape"/>
<feGaussianBlur stdDeviation="75" result="effect1_foregroundBlur_57_2"/>
</filter>
<filter id="filter10_f_57_2" x="652" y="1676" width="698" height="830" filterUnits="userSpaceOnUse" color-interpolation-filters="sRGB">
<feFlood flood-opacity="0" result="BackgroundImageFix"/>
<feBlend mode="normal" in="SourceGraphic" in2="BackgroundImageFix" result="shape"/>
<feGaussianBlur stdDeviation="75" result="effect1_foregroundBlur_57_2"/>
</filter>
<filter id="filter11_f_57_2" x="-390" y="789" width="774" height="457" filterUnits="userSpaceOnUse" color-interpolation-filters="sRGB">
<feFlood flood-opacity="0" result="BackgroundImageFix"/>
<feBlend mode="normal" in="SourceGraphic" in2="BackgroundImageFix" result="shape"/>
<feGaussianBlur stdDeviation="75" result="effect1_foregroundBlur_57_2"/>
</filter>
<filter id="filter12_f_57_2" x="1019" y="1413" width="619" height="654" filterUnits="userSpaceOnUse" color-interpolation-filters="sRGB">
<feFlood flood-opacity="0" result="BackgroundImageFix"/>
<feBlend mode="normal" in="SourceGraphic" in2="BackgroundImageFix" result="shape"/>
<feGaussianBlur stdDeviation="75" result="effect1_foregroundBlur_57_2"/>
</filter>
<filter id="filter13_f_57_2" x="1178.35" y="-329" width="741.29" height="764.013" filterUnits="userSpaceOnUse" color-interpolation-filters="sRGB">
<feFlood flood-opacity="0" result="BackgroundImageFix"/>
<feBlend mode="normal" in="SourceGraphic" in2="BackgroundImageFix" result="shape"/>
<feGaussianBlur stdDeviation="75" result="effect1_foregroundBlur_57_2"/>
</filter>
<filter id="filter14_f_57_2" x="-2.36365" y="1425" width="1179.73" height="783.008" filterUnits="userSpaceOnUse" color-interpolation-filters="sRGB">
<feFlood flood-opacity="0" result="BackgroundImageFix"/>
<feBlend mode="normal" in="SourceGraphic" in2="BackgroundImageFix" result="shape"/>
<feGaussianBlur stdDeviation="75" result="effect1_foregroundBlur_57_2"/>
</filter>
<filter id="filter15_f_57_2" x="388.1" y="452" width="614.8" height="854.464" filterUnits="userSpaceOnUse" color-interpolation-filters="sRGB">
<feFlood flood-opacity="0" result="BackgroundImageFix"/>
<feBlend mode="normal" in="SourceGraphic" in2="BackgroundImageFix" result="shape"/>
<feGaussianBlur stdDeviation="75" result="effect1_foregroundBlur_57_2"/>
</filter>
<filter id="filter16_f_57_2" x="540.293" y="249" width="730.415" height="623.25" filterUnits="userSpaceOnUse" color-interpolation-filters="sRGB">
<feFlood flood-opacity="0" result="BackgroundImageFix"/>
<feBlend mode="normal" in="SourceGraphic" in2="BackgroundImageFix" result="shape"/>
<feGaussianBlur stdDeviation="75" result="effect1_foregroundBlur_57_2"/>
</filter>
<filter id="filter17_f_57_2" x="-291.457" y="452" width="1405.91" height="956.25" filterUnits="userSpaceOnUse" color-interpolation-filters="sRGB">
<feFlood flood-opacity="0" result="BackgroundImageFix"/>
<feBlend mode="normal" in="SourceGraphic" in2="BackgroundImageFix" result="shape"/>
<feGaussianBlur stdDeviation="75" result="effect1_foregroundBlur_57_2"/>
</filter>
<filter id="filter18_f_57_2" x="1319" y="1516" width="662" height="839" filterUnits="userSpaceOnUse" color-interpolation-filters="sRGB">
<feFlood flood-opacity="0" result="BackgroundImageFix"/>
<feBlend mode="normal" in="SourceGraphic" in2="BackgroundImageFix" result="shape"/>
<feGaussianBlur stdDeviation="75" result="effect1_foregroundBlur_57_2"/>
</filter>
<filter id="filter19_f_57_2" x="-393.716" y="1596" width="1049.43" height="854.464" filterUnits="userSpaceOnUse" color-interpolation-filters="sRGB">
<feFlood flood-opacity="0" result="BackgroundImageFix"/>
<feBlend mode="normal" in="SourceGraphic" in2="BackgroundImageFix" result="shape"/>
<feGaussianBlur stdDeviation="75" result="effect1_foregroundBlur_57_2"/>
</filter>
<filter id="filter20_f_57_2" x="593.351" y="994" width="1067.3" height="833.25" filterUnits="userSpaceOnUse" color-interpolation-filters="sRGB">
<feFlood flood-opacity="0" result="BackgroundImageFix"/>
<feBlend mode="normal" in="SourceGraphic" in2="BackgroundImageFix" result="shape"/>
<feGaussianBlur stdDeviation="75" result="effect1_foregroundBlur_57_2"/>
</filter>
<filter id="filter21_f_57_2" x="1122" y="327" width="830" height="551" filterUnits="userSpaceOnUse" color-interpolation-filters="sRGB">
<feFlood flood-opacity="0" result="BackgroundImageFix"/>
<feBlend mode="normal" in="SourceGraphic" in2="BackgroundImageFix" result="shape"/>
<feGaussianBlur stdDeviation="75" result="effect1_foregroundBlur_57_2"/>
</filter>
<linearGradient id="paint0_linear_57_2" x1="878" y1="0" x2="878" y2="2449" gradientUnits="userSpaceOnUse">
<stop stop-color="#868686"/>
<stop offset="1" stop-color="#202020"/>
</linearGradient>
<clipPath id="clip0_57_2">
<rect width="1756" height="2449" fill="white"/>
</clipPath>
</defs>
</svg>
